<svg xmlns="http://www.w3.org/2000/svg" width="900" height="1200" viewBox="0 0 900 1200" role="img" aria-label="Science pose guide">
  <defs>
    <linearGradient id="bg" x1="0" y1="0" x2="1" y2="1">
      <stop offset="0" stop-color="#f7f5f0"/>
      <stop offset="0.55" stop-color="#c7e8df"/>
      <stop offset="1" stop-color="#f6c84c"/>
    </linearGradient>
    <filter id="shadow" x="-20%" y="-20%" width="140%" height="140%">
      <feDropShadow dx="0" dy="18" stdDeviation="18" flood-color="#15171a" flood-opacity="0.22"/>
    </filter>
  </defs>
  <rect width="900" height="1200" fill="url(#bg)"/>
  <g opacity="0.55" fill="none" stroke="#15171a" stroke-width="5">
    <ellipse cx="168" cy="170" rx="100" ry="34" transform="rotate(-25 168 170)"/>
    <ellipse cx="168" cy="170" rx="100" ry="34" transform="rotate(25 168 170)"/>
    <circle cx="168" cy="170" r="13" fill="#f36b4f"/>
    <path d="M650 158c78 16 124 76 104 136s-96 90-172 60" stroke-linecap="round"/>
    <path d="M96 948c92-82 172-74 244 22s164 90 280-18 164-108 214-8" stroke-linecap="round"/>
  </g>
  <g filter="url(#shadow)">
    <rect x="110" y="300" width="680" height="610" rx="44" fill="#ffffff" stroke="#15171a" stroke-width="7"/>
    <g stroke="#15171a" stroke-width="18" stroke-linecap="round" stroke-linejoin="round" fill="none">
      <path d="M260 562l-78-88"/>
      <path d="M640 560l82-92"/>
      <path d="M314 728l-42 112"/>
      <path d="M586 728l42 112"/>
      <path d="M360 510c32-42 148-42 180 0"/>
      <path d="M450 556v172"/>
      <path d="M330 606c72 54 168 54 240 0"/>
    </g>
    <circle cx="450" cy="432" r="86" fill="#f36b4f" stroke="#15171a" stroke-width="8"/>
    <path d="M410 426h80M420 470c28 22 62 22 90 0" stroke="#15171a" stroke-width="12" stroke-linecap="round" fill="none"/>
    <circle cx="392" cy="404" r="10" fill="#15171a"/>
    <circle cx="508" cy="404" r="10" fill="#15171a"/>
    <g fill="#26b99a" stroke="#15171a" stroke-width="6">
      <path d="M206 438l24 46 50 8-36 36 8 50-46-24-46 24 8-50-36-36 50-8z"/>
      <path d="M694 438l24 46 50 8-36 36 8 50-46-24-46 24 8-50-36-36 50-8z"/>
    </g>
  </g>
  <g fill="#15171a" opacity="0.75">
    <circle cx="180" cy="1028" r="9"/>
    <circle cx="224" cy="1028" r="9"/>
    <circle cx="268" cy="1028" r="9"/>
    <rect x="318" y="1018" width="402" height="20" rx="10"/>
  </g>
</svg>
